<svg width="76" height="76" viewBox="0 0 88 88" fill="none" xmlns="http://www.w3.org/2000/svg">
<g filter="url(#filter0_d)">
<circle cx="44" cy="44" r="28" fill="white"/>
</g>
<path d="M48.7122 37.5893C48.6815 38.479 48.5895 39.3994 48.4668 39.9516C48.5281 39.0006 48.4054 37.6507 48.1907 36.6076C47.9759 35.5645 47.3623 33.7852 46.8408 32.9875C46.3806 33.7545 45.8284 35.2884 45.5216 36.6076C45.2148 37.9268 45.2148 39.5221 45.2148 40.013C45.1228 39.6141 44.9387 38.1722 45.0001 36.7303C45.0614 35.5339 45.3375 34.3067 45.4909 33.7545C46.0431 31.8217 46.7181 30.6253 46.8408 30.4105C46.9635 30.5946 47.7918 32.0672 48.2213 33.6318C48.6508 35.1964 48.7429 36.6997 48.7122 37.5893ZM46.8408 44.308C46.5647 43.8171 46.1659 42.8968 46.1352 41.4549C46.1352 40.0743 46.6874 38.8779 46.8408 38.6324C46.9942 38.8779 47.4544 39.9209 47.5157 41.3322C47.5771 42.7127 47.1169 43.8171 46.8408 44.308ZM48.8656 33.6625C48.3441 31.3615 47.0249 29.4901 46.8408 29.1833C46.5647 29.6129 45.4909 31.2695 44.9694 33.1102C44.3865 35.1657 44.2945 36.9758 44.5092 38.7551C44.6933 40.5345 45.4602 42.3752 45.4602 42.3752C45.8591 43.3263 46.4726 44.3694 46.8408 44.8602C47.4237 44.1239 48.7429 41.8844 49.1417 38.9699C49.3871 37.3746 49.3871 35.9634 48.8656 33.6625Z" fill="#0071CE"/>
<path d="M47.7297 45.4117H43.7414V48.1114C44.6925 47.1604 46.2264 47.1604 47.1468 48.1114C48.0978 49.0625 48.0978 50.5964 47.1468 51.5168C47.1468 51.5168 47.1468 51.5168 47.1161 51.5168C46.1957 52.4371 44.9379 52.928 43.7108 52.928C42.4836 52.928 41.2565 52.4678 40.3054 51.5168C38.6488 49.8601 38.4647 47.2831 39.7225 45.4117C39.9066 45.1663 40.0907 44.9208 40.3054 44.7061C41.2565 43.755 42.5143 43.2948 43.7414 43.2948V36.8523C38.9862 36.8523 35.1514 40.6871 35.1514 45.4424C35.1514 50.1976 38.9862 54.0324 43.7414 54.0324C46.2264 54.0324 48.4353 52.9894 49.9999 51.302V45.4117H47.7297Z" fill="#0071CE"/>
<defs>
<filter id="filter0_d" x="0" y="0" width="88" height="88" filterUnits="userSpaceOnUse" color-interpolation-filters="sRGB">
<feFlood flood-opacity="0" result="BackgroundImageFix"/>
<feColorMatrix in="SourceAlpha" type="matrix" values="0 0 0 0 0 0 0 0 0 0 0 0 0 0 0 0 0 0 127 0"/>
<feOffset/>
<feGaussianBlur stdDeviation="8"/>
<feColorMatrix type="matrix" values="0 0 0 0 0 0 0 0 0 0.443137 0 0 0 0 0.807843 0 0 0 0.17 0"/>
<feBlend mode="normal" in2="BackgroundImageFix" result="effect1_dropShadow"/>
<feBlend mode="normal" in="SourceGraphic" in2="effect1_dropShadow" result="shape"/>
</filter>
</defs>
</svg>
