<svg width="40" height="40" viewBox="0 0 40 40" fill="none" xmlns="http://www.w3.org/2000/svg">
<rect width="40" height="40" rx="20" fill="white"/>
<rect x="4" y="4" width="32" height="32" rx="16" fill="#53B178"/>
<path d="M20.5249 10.447L20.52 10.4418C20.5181 10.4397 20.5162 10.4376 20.5142 10.4354C20.4959 10.4147 20.4749 10.391 20.4433 10.4032C20.408 10.4169 20.4214 10.4434 20.4331 10.4665C20.4355 10.4713 20.4379 10.476 20.4397 10.4803C20.5455 10.7331 20.6258 10.9914 20.6869 11.2542C20.7981 11.7321 20.8131 12.2127 20.7247 12.6933C20.5965 13.3905 20.2675 14.0227 19.8196 14.6147C19.3386 15.2505 18.7501 15.813 18.1374 16.359C17.9555 16.5212 17.7697 16.6801 17.5838 16.8391C17.2181 17.1519 16.8523 17.4647 16.5164 17.8019C16.0799 18.2401 15.6625 18.688 15.3261 19.1861C14.9168 19.7923 14.6685 20.4369 14.6647 21.2356C14.659 21.3922 14.6915 21.6228 14.7463 21.8585L14.7653 21.9372C14.8855 22.415 15.098 22.8639 15.3687 23.2954C15.736 23.8809 16.1916 24.4147 16.697 24.92C16.7012 24.9242 16.7054 24.9294 16.7096 24.9348C16.7241 24.9533 16.7401 24.9736 16.7671 24.9621C16.8007 24.9476 16.7876 24.9237 16.7756 24.9019C16.7724 24.8959 16.7692 24.8901 16.767 24.8846C16.6585 24.6082 16.5646 24.3288 16.5047 24.0414C16.369 23.3904 16.4051 22.7476 16.6254 22.1128C16.8812 21.3756 17.3442 20.7318 17.8945 20.1276C18.3355 19.6434 18.8265 19.1957 19.3341 18.7616C19.3495 18.7485 19.3649 18.7353 19.3803 18.7221C19.907 18.2718 20.4331 17.8219 20.9073 17.3305C21.2981 16.9254 21.6667 16.5085 21.9573 16.0461C22.3745 15.3821 22.5946 14.6823 22.5241 13.9251C22.4799 13.451 22.3343 13.0001 22.1193 12.5632C21.9141 12.1459 21.6511 11.7545 21.3545 11.3786C21.0991 11.0548 20.8188 10.7466 20.5249 10.447Z" fill="white"/>
<path d="M23.7261 14.7141L23.7212 14.7089C23.7193 14.7068 23.7174 14.7047 23.7154 14.7025C23.6971 14.6818 23.6761 14.6581 23.6445 14.6703C23.6092 14.684 23.6226 14.7105 23.6343 14.7336C23.6367 14.7384 23.639 14.7431 23.6409 14.7474C23.7466 15.0001 23.827 15.2585 23.8881 15.5213C23.9992 15.9992 24.0143 16.4798 23.9259 16.9604C23.7977 17.6575 23.4687 18.2897 23.0208 18.8818C22.5398 19.5176 21.9513 20.08 21.3386 20.6261C21.1567 20.7883 20.9708 20.9472 20.785 21.1062C20.4192 21.419 20.0535 21.7318 19.7176 22.069C19.2811 22.5072 18.8636 22.9551 18.5273 23.4532C18.118 24.0594 17.8697 24.704 17.8659 25.5027C17.8602 25.6593 17.8927 25.8898 17.9474 26.1256L17.9665 26.2043C18.0867 26.6821 18.2992 27.131 18.5698 27.5625C18.9372 28.148 19.3928 28.6817 19.8982 29.187C19.9024 29.1913 19.9065 29.1965 19.9108 29.2019C19.9253 29.2203 19.9413 29.2407 19.9683 29.2291C20.0019 29.2147 19.9888 29.1908 19.9768 29.1689C19.9735 29.163 19.9703 29.1572 19.9682 29.1517C19.8596 28.8753 19.7658 28.5959 19.7059 28.3084C19.5701 27.6575 19.6062 27.0147 19.8266 26.3798C20.0824 25.6426 20.5453 24.9989 21.0956 24.3947C21.5367 23.9105 22.0277 23.4628 22.5353 23.0287C22.5507 23.0156 22.5661 23.0024 22.5814 22.9892C23.1082 22.5389 23.6343 22.089 24.1084 21.5976C24.4993 21.1924 24.8679 20.7756 25.1585 20.3132C25.5756 19.6492 25.7957 18.9493 25.7253 18.1922C25.6811 17.7181 25.5354 17.2672 25.3205 16.8303C25.1153 16.413 24.8523 16.0216 24.5557 15.6457C24.3002 15.3219 24.0199 15.0137 23.7261 14.7141Z" fill="white"/>
</svg>
